<svg id="Capa_1" enable-background="new 0 0 512 512" height="512" viewBox="0 0 512 512" width="512" xmlns="http://www.w3.org/2000/svg"><g><g><g><path d="m456.969 407.139c27.744-39.712 44.031-88.02 44.031-140.139 0-135.31-109.69-245-245-245s-245 109.69-245 245c0 52.119 16.287 100.427 44.031 140.139z" fill="#ffdd40"/></g></g><g><g><circle cx="256" cy="222" fill="#ffc839" r="180"/></g></g><g><g><path d="m345.959 284.962c-14.477 2.775-25.794 12.635-31.064 25.296 9.578 9.815 23.738 14.792 38.215 12.018 12.866-2.466 23.236-10.528 29.084-21.179 1.328-2.42.747-5.453-1.382-7.21-9.371-7.734-21.987-11.391-34.853-8.925z" fill="#cc0053"/></g></g><g><g><path d="m318.974 270.406c-8.275 12.199-9.305 27.173-4.079 39.852 13.713.168 27.245-6.326 35.52-18.524 7.354-10.841 8.986-23.875 5.589-35.541-.772-2.65-3.327-4.384-6.075-4.121-12.095 1.157-23.601 7.492-30.955 18.334z" fill="#e80054"/></g></g><g><g><path d="m303.602 314.668v-.01c-.313-.053-.493-.082-.493-.082v-120.826h-94.279v120.835z" fill="#fd995b"/></g></g><g><g><path d="m456.908 407.139c-9.221-25.363-19.04-47.328-27.391-54.702-22.713-20.054-117.884-36.418-125.915-37.77l-94.772-.083c-2.584.428-102.995 17.18-126.408 37.852-8.351 7.373-18.17 29.339-27.391 54.702 16.028 22.943 35.885 43.011 58.641 59.285l124.153 44.905c6.001.44 12.061.67 18.175.67s12.174-.23 18.175-.67l124.13-44.889c22.747-16.263 42.597-36.317 58.624-59.244-.007-.017-.014-.036-.021-.056z" fill="#f9efdc"/></g></g><g><g><g><path d="m178.79 320.268c-32.275 6.676-80.97 18.574-96.368 32.17-8.351 7.373-18.17 29.339-27.391 54.702 16.028 22.943 35.885 43.011 58.641 59.285l124.153 44.905c6.001.44 12.061.67 18.175.67s12.174-.23 18.175-.67l124.129-44.889c-169.702 58.775-213.618-35.666-219.514-146.173z" fill="#f1e0c7"/></g></g><g><g><path d="m398.305 466.44v.001l.002-.001z" fill="#f7e6b0"/></g></g></g><g><g><path d="m182.017 313.605c-8.713 1.72-19.319 3.944-30.457 6.572l-5.9 5.354-8.683-1.738c-4.223 1.101-8.439 2.251-12.578 3.448-3.972 1.149-6.205 5.345-5.004 9.301 8.139 26.815 19.283 78.73-5.722 129.881 5.437 3.889 11.042 7.557 16.798 10.999l8.615.726 4.571 6.611c28.571 14.773 60.417 24.094 94.168 26.57-.4-32.753-2.101-69.896-8.399-83.947-7.139-15.924-47.409-113.777-47.409-113.777z" fill="#7f3822"/></g></g><g><g><path d="m178.509 314.306c-7.985 1.608-17.268 3.589-26.951 5.873l-5.898 5.353-8.683-1.738c-4.223 1.101-8.439 2.25-12.579 3.448-3.972 1.149-6.205 5.345-5.004 9.301 8.139 26.815 19.283 78.73-5.722 129.881 5.437 3.889 11.042 7.557 16.798 10.999l8.615.726 4.571 6.611c28.571 14.773 60.417 24.094 94.168 26.57-.193-15.771-.689-32.554-1.853-47.293-40.902-29.541-54.907-87.499-57.462-149.731z" fill="#6b2c1b"/></g></g><g><g><path d="m143.656 484.76c28.931-68.049 18.48-130.067 7.903-164.582-4.799 1.132-9.694 2.341-14.583 3.616 9.927 31.969 20.044 89.912-6.506 153.63 4.311 2.577 8.71 5.021 13.186 7.336z" fill="#7f3822"/></g></g><g><g><path d="m368.344 484.76 4.571-6.611 8.615-.726c5.756-3.442 11.361-7.111 16.798-10.999-25.005-51.151-13.861-103.066-5.722-129.881 1.201-3.957-1.032-8.152-5.004-9.301-4.139-1.198-8.356-2.347-12.578-3.448l-8.683 1.738-5.9-5.354c-11.138-2.628-21.744-4.852-30.457-6.572 0 0-40.27 97.853-47.409 113.778-6.299 14.051-7.999 51.193-8.399 83.947 33.751-2.477 65.597-11.798 94.168-26.571z" fill="#7f3822"/></g></g><g><g><path d="m372.915 478.149 8.615-.726c5.748-3.437 11.345-7.101 16.775-10.983h-.001c-52.127 18.054-92.384 21.649-123.318 14.765-.449 9.938-.69 20.23-.811 30.124 33.752-2.476 65.598-11.797 94.168-26.57z" fill="#6b2c1b"/></g></g><g><g><path d="m368.344 484.76c-28.931-68.049-18.48-130.067-7.903-164.582 4.799 1.132 9.694 2.341 14.583 3.616-9.927 31.969-20.044 89.912 6.506 153.63-4.311 2.577-8.71 5.021-13.186 7.336z" fill="#a05838"/></g></g><g><g><path d="m381.53 477.423c-.69-1.656-1.341-3.306-1.982-4.955-4.968 1.468-9.816 2.79-14.551 3.977 1.054 2.761 2.164 5.532 3.347 8.314 4.476-2.314 8.875-4.758 13.186-7.336z" fill="#7f3822"/></g></g><g><g><path d="m91.07 426.843v21.327c7.157 6.519 14.704 12.617 22.599 18.262l-12.035-41.103c-1.75-5.98-10.564-4.716-10.564 1.514z" fill="#e8d0b1"/></g></g><g><g><path d="m420.93 426.843v21.327c-7.157 6.519-14.704 12.617-22.599 18.262l12.035-41.103c1.75-5.98 10.564-4.716 10.564 1.514z" fill="#f1e0c7"/></g></g><g><g><path d="m331.058 159.567s10.385-25.285 28.897-19.415-.448 60.664-36.573 64.116z" fill="#fd995b"/></g></g><g><g><path d="m180.942 159.567s-10.385-25.285-28.897-19.415.448 60.664 36.573 64.116z" fill="#fd995b"/></g></g><g><g><path d="m343.597 146.754c0 64.505-39.219 140.155-87.597 140.155s-87.597-75.651-87.597-140.155 39.218-110.884 87.597-110.884 87.597 46.38 87.597 110.884z" fill="#f9ba8f"/></g></g><g><g><path d="m208.403 146.754c0-55.33 28.856-97.321 67.597-108.148-6.424-1.795-13.119-2.737-20-2.737-48.379 0-87.597 46.38-87.597 110.885s39.219 140.155 87.597 140.155c6.881 0 13.576-1.535 20-4.346-38.741-16.952-67.597-80.479-67.597-135.809z" fill="#fcad6d"/></g></g><g><g><path d="m294.315 0c-5.553 0-11.02 1.365-15.922 3.974l-5.097 2.713c-5.325 2.835-11.264 4.317-17.297 4.317-6.032 0-11.972-1.483-17.297-4.317l-5.097-2.713c-4.9-2.609-10.367-3.974-15.92-3.974-15.502 0-29.026 10.521-32.839 25.546l-26.388 103.985 97.542 21.117 97.543-21.117-26.389-103.985c-3.813-15.025-17.337-25.546-32.839-25.546z" fill="#a05838"/></g></g><g><g><path d="m353.543 129.531-15.354-60.505c-91.687 20.116-162.3-8.184-155.255-35.944l-24.476 96.449 97.542 21.117z" fill="#7f3822"/></g></g><g><g><path d="m353.23 87.645c-1.401-5.52-7.119-8.739-12.578-7.118-25.812 7.669-39.668 20.12-84.652 20.12s-58.841-12.451-84.652-20.12c-5.459-1.622-11.177 1.598-12.578 7.118l-9.717 38.293 106.947 24.71 106.948-24.708z" fill="#ce846a"/></g></g><g><g><g><path d="m226.852 143.913 2.374-9.81c-9.518-1.697-15.858-10.789-14.161-20.307 1.576-8.838 9.528-14.924 18.276-14.393-28.047-3.339-41.111-12.671-61.994-18.875-5.459-1.622-11.177 1.598-12.578 7.118l-9.717 38.293z" fill="#a05838"/></g></g></g><g><g><path d="m318.391 298.945c-1.601-4.745-5.549-10.581-15.261-12.035 0 0-20.087 19.58-47.15 19.58s-47.15-19.58-47.15-19.58c-9.712 1.454-13.661 7.29-15.261 12.035-1.207 3.579-4.259 6.227-7.996 6.776-6.558.962-15.414 4.466-15.414 16.378 0 18.915 62.842 91.194 85.822 91.194s85.822-72.279 85.822-91.194c0-11.912-8.856-15.416-15.414-16.378-3.739-.549-6.79-3.197-7.998-6.776z" fill="#ff4155"/></g></g><g><g><path d="m208.83 286.91c-9.712 1.454-13.661 7.29-15.261 12.035-1.207 3.579-4.259 6.227-7.996 6.776-6.558.962-15.414 4.466-15.414 16.378 0 10.618 19.803 38.051 41.24 60.075-13.936-31.083-.464-41.751 9.503-45.392 4.223-1.543 6.826-5.759 6.45-10.239-.622-7.405 1.864-17.543 18.658-20.926v-.002c-21.881-3.797-37.18-18.705-37.18-18.705z" fill="#e80054"/></g></g><g><g><g><path d="m256 165.648c-42.72 0-64.35-8.111-85.267-15.955-19.26-7.223-37.453-14.045-74.733-14.045-8.284 0-15-6.716-15-15s6.716-15 15-15c42.72 0 64.35 8.111 85.267 15.955 19.26 7.223 37.453 14.045 74.733 14.045s55.473-6.822 74.733-14.045c20.917-7.844 42.547-15.955 85.267-15.955 8.284 0 15 6.716 15 15s-6.716 15-15 15c-37.28 0-55.473 6.822-74.733 14.045-20.917 7.844-42.547 15.955-85.267 15.955z" fill="#a05838"/></g></g></g><g><g><path d="m241 150.648c0-8.284 6.716-15 15-15-37.28 0-55.473-6.822-74.733-14.045-20.917-7.844-42.547-15.955-85.267-15.955-8.284 0-15 6.716-15 15s6.716 15 15 15c37.28 0 55.473 6.822 74.733 14.045 20.917 7.844 42.547 15.955 85.267 15.955-8.284 0-15-6.716-15-15z" fill="#7f3822"/></g></g></g></svg>